<?xml version="1.0" encoding="UTF-8" standalone="no"?>
<!DOCTYPE svg PUBLIC "-//W3C//DTD SVG 1.1//EN" "http://www.w3.org/Graphics/SVG/1.1/DTD/svg11.dtd">
<svg xmlns="http://www.w3.org/2000/svg" xmlns:xlink="http://www.w3.org/1999/xlink" xmlns:serif="http://www.serif.com/" width="200" height="195" viewBox="0 0 649 634" version="1.1" xml:space="preserve" style="fill-rule:evenodd;clip-rule:evenodd;stroke-linejoin:round;stroke-miterlimit:2;">
    <g transform="matrix(1,0,0,1,-395.591,-963.466)">
        <g transform="matrix(8.33333,0,0,8.33333,-6059.04,2086.91)">
            <path d="M820.505,-129.106C820.222,-128.202 822.78,-128.345 823.809,-128.446C824.28,-128.491 823.505,-128.115 823.843,-128.06C824.224,-127.999 824.675,-127.424 825.214,-127.461C825.554,-127.484 825.677,-127.947 825.998,-128.029C826.96,-128.274 827.53,-127.016 828.284,-126.672C828.691,-126.488 829.429,-126.491 829.851,-126.263C830.351,-125.992 830.658,-125.341 831.125,-125.001C831.553,-124.957 831.947,-124.779 832.333,-124.623C832.719,-124.467 833.166,-124.334 833.509,-124.149C833.85,-123.966 834.16,-123.637 834.489,-123.393C835.479,-122.655 836.499,-121.943 837.787,-121.469C838.555,-120.72 839.009,-119.81 839.485,-118.725C839.921,-117.73 840.405,-116.393 841.216,-115.886C841.928,-115.442 843.159,-115.488 843.469,-114.719C843.621,-114.343 843.465,-113.646 843.6,-113.174C843.703,-112.809 844.039,-112.391 844.252,-112.039C845.831,-109.44 848.094,-107.569 848.4,-103.776C848.493,-102.621 847.981,-101.677 848.106,-100.685C848.344,-98.796 849.412,-97.138 849.412,-94.945C849.412,-94.367 849.402,-93.821 849.314,-93.274C849.24,-92.812 849.049,-92.349 848.988,-91.855C848.871,-90.909 849.109,-90.065 848.988,-89.111C848.85,-88.028 847.768,-87.273 847.453,-86.083C847.277,-85.418 847.712,-84.468 847.29,-83.939C847.076,-83.672 846.514,-83.55 846.016,-83.434C845.548,-83.325 844.884,-83.082 845.004,-82.677C845.163,-82.137 845.96,-82.91 846.343,-82.803C846.622,-82.725 846.702,-82.05 846.473,-81.542C846.154,-80.834 845.447,-80.265 844.971,-79.618C844.474,-78.942 844.183,-78.014 843.828,-77.347C843.08,-75.939 841.939,-74.651 840.856,-73.5C839.725,-72.296 838.661,-71.032 837.558,-69.967C836.967,-69.397 836.383,-68.844 835.697,-68.391C835.012,-67.938 834.147,-67.735 833.378,-67.287C832.885,-66.999 832.507,-66.579 832.039,-66.277C830.643,-65.38 828.961,-64.704 827.369,-63.944C826.259,-63.413 825.062,-63.192 823.745,-62.871C822.444,-62.555 821.405,-61.928 820.316,-61.61C820.285,-61.601 820.219,-61.579 820.218,-61.579C819.476,-61.461 818.647,-61.556 817.834,-61.452C817.077,-61.355 816.314,-61.234 815.581,-61.2C813.979,-61.126 812.364,-61.28 810.878,-61.484C809.341,-61.695 807.851,-61.993 806.339,-61.957C805.572,-61.939 804.795,-61.946 804.053,-62.114C803.701,-62.195 803.385,-62.309 803.041,-62.335C802.65,-62.364 802.255,-62.325 801.833,-62.367C800.99,-62.45 800.294,-62.968 799.645,-63.439C799.002,-63.905 798.345,-64.433 797.718,-64.764C796.167,-65.582 794.169,-65.41 793.31,-66.845C793.263,-67 793.496,-66.963 793.407,-67.192C793.304,-67.459 792.648,-67.471 792.362,-67.602C791.532,-67.983 791.128,-69.162 790.305,-69.873C789.765,-70.339 789.175,-70.443 788.738,-70.882C788.692,-71.231 788.871,-71.363 788.836,-71.702C788.431,-72.014 787.802,-71.948 787.366,-72.207C786.864,-72.506 786.448,-73.12 786.093,-73.594C785.706,-74.11 785.332,-74.593 784.917,-75.045C784.549,-75.446 784.1,-75.908 783.676,-76.433C783.301,-76.897 782.747,-77.519 782.631,-78.01C782.518,-78.486 782.697,-79.011 782.501,-79.366C782.365,-79.61 781.831,-79.715 781.619,-79.902C781.312,-80.172 781.164,-80.683 780.966,-81.164C780.413,-82.502 779.775,-83.836 779.235,-85.169C778.851,-86.117 778.637,-87.07 778.353,-88.102C778.165,-88.787 777.999,-89.605 777.831,-90.435C777.777,-90.7 777.611,-90.967 777.602,-91.161C777.595,-91.316 777.722,-91.534 777.733,-91.76C777.771,-92.571 777.5,-93.155 777.57,-94.094C777.65,-95.18 778.074,-96.246 778.451,-97.248C778.831,-98.255 779.266,-99.292 779.203,-100.496C779.135,-101.759 778.62,-102.756 778.615,-103.934C778.608,-105.281 779.349,-105.92 779.66,-106.898C779.782,-107.283 779.82,-107.708 779.921,-108.097C780.017,-108.467 780.14,-108.809 780.28,-109.169C780.525,-109.8 780.901,-110.775 781.456,-110.998C781.793,-111.134 782.196,-111.053 782.468,-111.156C782.932,-111.331 783.346,-111.852 783.448,-112.291C783.674,-113.27 783.199,-114.378 783.545,-115.319C783.724,-115.802 784.225,-116.186 784.558,-116.58C784.861,-116.94 785.197,-117.577 785.668,-117.747C785.98,-117.86 786.652,-117.723 786.778,-118.063C786.926,-118.457 786.477,-118.472 786.485,-118.757C787.101,-119.342 788.181,-119.653 788.868,-120.396C789.351,-120.919 789.532,-121.804 790.109,-122.226C790.545,-122.544 791.262,-122.741 791.905,-123.046C792.51,-123.333 793.119,-123.663 793.636,-123.897C794.247,-124.174 794.846,-124.401 795.334,-124.812C795.824,-125.224 796.216,-125.837 796.739,-126.073C797.733,-126.523 799.01,-126.907 800.004,-127.556C800.382,-127.802 800.737,-128.106 801.049,-128.123C801.49,-128.148 801.819,-127.784 802.192,-127.776C803.038,-127.759 803.905,-128.857 805.033,-128.691C805.371,-128.641 805.425,-128.412 805.752,-128.249C807.582,-128.127 808.642,-129.41 810.029,-129.889C810.612,-130.09 811.381,-130.158 812.021,-130.11C812.979,-130.038 813.878,-129.695 814.993,-129.858C815.329,-129.907 815.675,-130.018 816.005,-129.984C816.41,-129.943 816.551,-129.626 817.018,-129.605C817.118,-129.847 817.104,-130.342 817.442,-130.426C817.711,-130.492 818.106,-130.344 818.324,-130.268C818.655,-130.153 818.859,-129.909 819.238,-129.795C819.726,-129.648 820.463,-129.617 821.002,-129.511C821.262,-129.46 822.559,-129.346 822.569,-129.038C822.584,-128.57 820.839,-129.279 820.505,-129.106ZM780.868,-109.232C780.789,-108.896 781.023,-108.544 781.194,-108.317C781.586,-108.518 781.81,-108.879 781.945,-109.327C781.654,-109.339 781.604,-109.586 781.456,-109.737C781.276,-109.605 780.928,-109.488 780.868,-109.232ZM844.155,-81.195C844.589,-80.366 845.402,-81.531 844.547,-81.699C844.409,-81.538 844.225,-81.421 844.155,-81.195ZM822.21,-62.935C822.429,-63.058 822.312,-63.428 822.243,-63.628C821.153,-63.929 821.503,-62.886 822.21,-62.935ZM819.597,-62.525C819.826,-62.637 820.2,-62.732 820.153,-62.966C820.131,-63.071 819.981,-63.135 819.826,-63.155C819.435,-63.207 818.531,-62.91 817.965,-62.998C817.806,-62.852 817.82,-62.736 817.834,-62.43C818.303,-61.904 819.119,-62.288 819.597,-62.525Z" style="fill:rgb(242,101,33);fill-rule:nonzero;"/>
            <path d="M821.842,-133.068C821.534,-132.059 822.705,-131.914 823.851,-132.029C824.36,-132.081 824.909,-132.257 825.271,-132.202C825.717,-132.136 826.193,-131.48 826.795,-131.545C827.193,-131.587 827.337,-132.065 827.591,-132.202C828.75,-132.246 829.065,-131.229 829.842,-130.782C830.356,-130.487 831.073,-130.499 831.608,-130.229C832.206,-129.927 832.53,-129.227 833.028,-128.843C833.931,-128.638 834.708,-128.259 835.487,-127.943C835.69,-127.861 835.99,-127.558 836.214,-127.389C836.83,-126.928 837.492,-126.303 838.154,-125.9C838.446,-125.721 838.8,-125.587 839.123,-125.415C839.429,-125.252 839.809,-125.156 840.093,-124.965C840.468,-124.712 840.879,-124.042 841.132,-123.579C841.432,-123.03 841.663,-122.461 841.894,-121.917C842.365,-120.803 842.86,-119.436 843.695,-118.869C844.437,-118.365 845.732,-118.445 846.084,-117.588C846.273,-117.13 846.086,-116.506 846.223,-115.926C846.317,-115.524 846.691,-115.057 846.915,-114.679C847.162,-114.264 847.366,-113.843 847.608,-113.467C848.129,-112.658 848.766,-111.924 849.235,-111.251C850.316,-109.704 851.133,-107.953 851.313,-105.641C851.363,-105.003 851.308,-104.488 851.175,-103.909C851.045,-103.346 850.937,-102.812 851.002,-102.247C851.123,-101.184 851.492,-100.248 851.798,-99.199C852.244,-97.669 852.59,-96.08 852.318,-94.178C852.246,-93.675 852.038,-93.177 851.971,-92.619C851.864,-91.726 852.12,-90.561 851.971,-89.503C851.794,-88.241 850.606,-87.326 850.309,-86.144C850.165,-85.571 850.533,-84.491 850.24,-83.927C850.05,-83.562 849.4,-83.397 848.855,-83.269C848.383,-83.158 847.585,-82.887 847.712,-82.403C847.868,-81.805 848.834,-82.61 849.201,-82.507C849.843,-81.538 849.059,-80.705 848.543,-80.083C847.991,-79.418 847.477,-78.746 847.123,-77.971C846.744,-77.139 846.43,-76.339 845.945,-75.616C844.538,-73.514 842.837,-71.829 841.097,-69.867C839.997,-68.626 838.794,-67.241 837.426,-66.473C836.804,-66.124 836.03,-65.896 835.418,-65.538C834.908,-65.24 834.498,-64.765 833.998,-64.43C832.496,-63.424 830.694,-62.721 829.011,-61.833C827.913,-61.253 826.439,-60.975 825.132,-60.655C824.145,-60.414 823.295,-59.989 822.397,-59.616C822.107,-59.496 821.763,-59.318 821.496,-59.27C820.844,-59.152 820.098,-59.217 819.384,-59.166C818.739,-59.12 818.075,-58.982 817.444,-58.923C814.477,-58.651 811.92,-59.152 809.341,-59.478C807.997,-59.647 806.631,-59.579 805.22,-59.72C804.568,-59.785 804.017,-59.988 803.349,-60.066C802.653,-60.149 801.934,-60.079 801.376,-60.274C799.879,-60.797 798.818,-62.181 797.393,-62.871C795.897,-63.596 793.871,-63.547 792.96,-64.984C792.87,-65.154 793.151,-65.131 793.064,-65.4C792.841,-65.695 792.263,-65.74 791.887,-65.954C791.042,-66.434 790.493,-67.74 789.74,-68.378C789.545,-68.542 789.221,-68.736 788.908,-68.932C788.637,-69.102 788.184,-69.283 788.112,-69.486C788.013,-69.765 788.281,-70.05 788.216,-70.352C787.88,-70.73 787.236,-70.624 786.796,-70.837C786.233,-71.109 785.836,-71.709 785.411,-72.291C784.616,-73.378 783.751,-74.364 782.883,-75.442C782.414,-76.025 781.709,-76.671 781.601,-77.382C781.526,-77.883 781.66,-78.474 781.463,-78.802C781.29,-79.091 780.812,-79.136 780.562,-79.356C780.244,-79.636 780.026,-80.247 779.835,-80.741C779.261,-82.231 778.601,-83.732 778.035,-85.174C777.614,-86.244 777.398,-87.339 777.099,-88.429C776.945,-88.992 776.773,-89.51 776.684,-90.091C776.599,-90.642 776.532,-91.232 776.268,-91.754C776.612,-92.425 776.299,-93.493 776.268,-94.316C776.154,-97.354 778.389,-99.51 777.896,-102.662C777.71,-103.849 777.285,-104.92 777.376,-106.195C777.417,-106.765 777.613,-107.249 777.827,-107.684C778.036,-108.111 778.347,-108.529 778.485,-108.965C778.607,-109.353 778.645,-109.831 778.762,-110.281C778.871,-110.703 778.989,-111.092 779.143,-111.493C779.407,-112.182 779.749,-113.225 780.32,-113.467C780.632,-113.6 781.08,-113.528 781.394,-113.641C781.815,-113.791 782.23,-114.247 782.398,-114.645C782.848,-115.713 782.135,-117.285 782.606,-118.281C782.838,-118.773 783.219,-119.077 783.645,-119.597C783.995,-120.025 784.333,-120.648 784.753,-120.844C785.057,-120.986 785.919,-120.87 786.034,-121.225C786.189,-121.701 785.691,-121.727 785.722,-122.021C786.516,-122.738 787.673,-123.065 788.354,-123.96C788.782,-124.522 789.009,-125.386 789.532,-125.796C789.859,-126.053 790.371,-126.201 790.813,-126.419C791.231,-126.626 791.67,-126.833 792.094,-127.042C792.928,-127.455 793.866,-127.808 794.623,-128.289C795.383,-128.773 795.827,-129.592 796.527,-130.021C796.868,-130.229 797.34,-130.353 797.774,-130.54C798.552,-130.875 799.351,-131.178 800.094,-131.683C800.432,-131.913 800.854,-132.306 801.203,-132.306C801.592,-132.307 801.989,-131.902 802.484,-131.925C803.427,-131.971 804.043,-133.118 805.393,-132.895C805.628,-132.856 805.858,-132.505 806.12,-132.445C806.381,-132.386 806.837,-132.436 807.09,-132.479C807.737,-132.59 808.378,-132.968 808.994,-133.311C809.588,-133.641 810.207,-134.108 810.761,-134.28C811.639,-134.555 812.925,-134.468 813.912,-134.28C814.489,-134.171 814.983,-134.072 815.47,-134.107C815.999,-134.146 816.487,-134.366 816.994,-134.315C817.405,-134.273 817.53,-133.964 818.068,-133.899C818.186,-134.231 818.254,-134.798 818.587,-134.8C819.344,-134.911 819.799,-134.296 820.423,-134.107C821.083,-133.908 821.62,-133.972 822.293,-133.83C822.49,-133.788 823.903,-133.587 823.92,-133.311C823.943,-132.948 823.242,-133.068 822.985,-133.068L821.842,-133.068ZM812.908,-128.809C810.362,-128.924 808.175,-128.638 806.259,-128.082C802.606,-127.021 799.062,-125.296 796.181,-123.302C795.187,-122.614 794.036,-122.195 793.03,-121.502C792.076,-120.845 791.479,-119.809 790.571,-119.008C789.758,-118.292 788.451,-117.513 787.939,-116.688C787.625,-116.181 787.458,-115.617 787.108,-115.164C786.75,-114.702 786.352,-114.282 786.103,-113.779C785.844,-113.253 785.773,-112.613 785.549,-112.047C785.183,-111.121 784.782,-110.185 784.372,-109.312C784.162,-108.863 783.792,-108.526 783.61,-108.099C783.345,-107.476 783.424,-106.685 783.264,-106.022C783.072,-105.227 782.461,-104.583 782.259,-103.805C782.115,-103.249 782.138,-102.535 782.017,-101.866C781.909,-101.27 781.794,-100.658 781.74,-100.03C781.689,-99.449 781.783,-98.791 781.775,-98.126C781.766,-97.428 781.622,-96.681 781.705,-96.082C781.782,-95.528 782.257,-95.261 782.259,-94.594C782.263,-93.752 781.522,-92.983 781.567,-92.135C781.594,-91.626 782.14,-91.168 782.19,-90.715C782.298,-89.739 782.263,-88.998 782.467,-88.221C782.83,-86.84 783.709,-85.669 784.233,-84.447C784.512,-83.798 784.699,-83.091 784.961,-82.369C785.452,-81.011 786.088,-79.811 786.865,-78.698C787.48,-77.817 787.968,-77.063 788.424,-76.101C788.59,-75.75 788.644,-75.286 788.805,-74.958C789.049,-74.458 789.719,-73.898 790.19,-73.469C790.709,-72.996 791.283,-72.473 791.783,-72.187C791.976,-72.077 792.162,-72.084 792.337,-72.014C792.828,-71.817 793.264,-71.383 793.688,-71.079C794.291,-70.646 794.616,-69.948 795.211,-69.555C796.083,-68.98 797.142,-68.661 798.017,-68.17C798.857,-67.698 799.75,-67.214 800.683,-66.785C802.014,-66.172 803.606,-65.711 805.046,-65.088C805.572,-64.861 806.053,-64.568 806.501,-64.499C807.071,-64.411 807.642,-64.424 808.198,-64.326C809.86,-64.033 811.623,-63.957 813.323,-63.737C814.436,-63.594 815.597,-63.787 816.821,-63.876C817.418,-63.919 818.001,-63.947 818.587,-64.014C821.386,-64.337 823.862,-65.133 826.137,-65.954C827.522,-66.453 828.79,-67.163 830.015,-67.789C830.466,-68.019 830.942,-68.058 831.504,-68.205C831.934,-68.317 832.336,-68.733 832.717,-69.036C833.07,-69.317 833.393,-69.64 833.79,-69.867C834.665,-70.367 835.402,-70.696 836.006,-71.425C836.847,-72.44 837.915,-73.3 838.916,-74.161C839.281,-74.476 839.688,-74.742 839.885,-75.096C840.069,-75.426 840.107,-75.824 840.266,-76.17C840.517,-76.716 840.994,-77.217 841.374,-77.694C841.776,-78.197 842.323,-78.575 842.586,-79.113C842.797,-79.544 842.89,-80.115 843.14,-80.568C843.369,-80.981 843.664,-81.344 843.868,-81.78C844.045,-82.16 844.141,-82.693 844.352,-83.027C844.638,-83.478 845.47,-83.828 845.738,-84.273C845.937,-84.605 846.004,-85.135 846.223,-85.555C846.429,-85.949 846.696,-86.36 846.708,-86.801C846.727,-87.551 846.316,-87.674 846.327,-88.36C846.337,-89.041 846.627,-89.338 846.708,-89.78C847.058,-91.707 846.775,-94.168 846.881,-96.394C846.938,-97.602 846.867,-98.735 846.846,-99.788C846.78,-103.131 845.729,-105.573 844.803,-108.03C844.496,-108.844 844.167,-109.676 843.764,-110.42C843.363,-111.159 842.776,-111.825 842.517,-112.601C842.375,-113.029 842.35,-113.483 842.205,-113.918C842.098,-114.238 841.676,-114.514 841.34,-114.783C840.45,-115.495 839.732,-116.613 839.089,-117.415C838.393,-118.283 837.419,-119.092 836.803,-120.013C836.573,-120.356 836.405,-120.752 836.145,-121.017C835.789,-121.38 835.201,-121.443 834.76,-121.675C834.04,-122.053 833.692,-122.783 833.063,-123.302C832.46,-123.8 831.664,-124.084 830.846,-124.41C829.213,-125.064 827.84,-125.821 826.275,-126.523C823.181,-127.912 819.613,-128.943 815.263,-128.913C814.449,-128.907 813.738,-128.771 812.908,-128.809ZM779.731,-111.597C779.643,-111.258 779.845,-110.597 780.078,-110.558C780.455,-110.496 780.852,-111.386 780.874,-111.666C780.675,-111.756 780.465,-111.834 780.459,-112.117C780.175,-112.078 779.814,-111.915 779.731,-111.597ZM846.846,-80.741C846.881,-80.471 847.224,-80.374 847.435,-80.429C847.87,-80.544 847.758,-81.35 847.227,-81.364C847.128,-81.106 846.804,-81.067 846.846,-80.741ZM823.643,-60.759C823.777,-60.908 823.711,-61.322 823.643,-61.486C822.439,-61.948 822.804,-60.465 823.643,-60.759ZM819.038,-60.794C818.908,-60.681 818.876,-60.471 818.899,-60.205C819.568,-59.395 820.709,-60.22 821.392,-60.517C821.369,-60.656 821.426,-60.714 821.427,-60.828C820.859,-61.162 819.846,-60.761 819.038,-60.794Z" style="fill:white;fill-rule:nonzero;"/>
            <path d="M794.242,-120.497C794.753,-121.301 795.509,-121.625 796.354,-122.229C796.918,-122.632 797.303,-123.14 797.809,-123.406C798.591,-123.817 799.43,-123.869 800.233,-124.237C801.394,-124.77 802.311,-125.757 803.626,-126.004C804.389,-126.147 805.169,-126.113 805.982,-126.246C806.67,-126.359 807.441,-126.4 808.198,-126.592C808.734,-126.729 809.173,-127.099 809.722,-127.25C810.75,-127.534 811.803,-127.365 813.219,-127.25C814.372,-127.157 815.313,-126.967 815.644,-126.107C816.006,-125.167 815.555,-124.089 814.57,-124.03C814.015,-123.996 813.48,-124.333 812.769,-124.341C812.313,-124.347 811.77,-124.295 811.245,-124.272C810.698,-124.248 810.043,-124.277 809.618,-124.203C808.811,-124.061 807.945,-123.431 806.986,-123.198C806.083,-122.98 804.622,-123.153 803.73,-122.817C803.195,-122.616 802.773,-122.035 802.207,-121.675C801.688,-121.344 800.957,-121.069 800.302,-120.74C799.023,-120.097 798.006,-119.419 796.804,-118.627C796.279,-118.281 795.518,-117.483 794.761,-117.588C793.609,-117.749 792.462,-120.176 794.242,-120.497Z" style="fill:white;fill-rule:nonzero;"/>
            <path d="M824.786,-124.757C824.791,-123.766 824.307,-123.056 823.366,-123.025C823.202,-123.02 823.002,-123.077 822.743,-123.095C822.452,-123.114 822.038,-123.015 821.808,-123.095C821.635,-123.154 821.539,-123.511 821.323,-123.649C820.817,-123.971 819.865,-123.841 819.626,-124.307C819.764,-124.735 819.457,-125.006 819.488,-125.346C819.519,-125.692 820.019,-126.2 820.284,-126.35C820.576,-126.515 821.131,-126.65 821.461,-126.766C821.786,-126.879 822.569,-126.652 822.812,-126.454C823.088,-126.229 823.232,-125.849 823.47,-125.623C823.92,-125.195 824.524,-125.206 824.786,-124.757Z" style="fill:white;fill-rule:nonzero;"/>
            <path d="M807.99,-101.554C808.491,-101.688 808.818,-102.181 808.752,-102.766C809.398,-103.39 809.815,-104.196 810.31,-105.121C810.722,-105.89 810.912,-106.802 811.869,-106.957C811.791,-107.97 812.445,-108.268 812.804,-108.861C813.038,-109.249 813.114,-109.624 813.323,-110.073C813.587,-110.385 813.928,-110.636 814.155,-111.009C814.354,-111.337 814.35,-111.759 814.605,-112.082C815.784,-111.426 815.941,-109.747 817.063,-109.035C817.213,-108.651 817.273,-108.173 817.479,-107.788C817.755,-107.271 818.447,-107.023 818.899,-106.576C819.763,-105.721 820.03,-104.355 820.665,-103.216C821.28,-102.114 822.264,-101.198 822.466,-99.926C823.508,-100.431 823.611,-101.696 823.955,-102.766C824.29,-103.808 825.081,-104.587 825.479,-105.572C825.792,-106.346 825.858,-107.204 826.171,-107.961C826.346,-108.383 826.644,-108.769 826.864,-109.173C827.111,-109.626 827.259,-110.158 827.487,-110.558C827.788,-111.086 828.761,-111.421 828.907,-111.978C829.051,-112.526 828.596,-112.955 828.63,-113.571C828.675,-114.366 829.325,-114.809 829.53,-115.441C830.359,-115.239 831.105,-114.908 831.782,-114.575C832.445,-114.249 833.202,-113.921 833.721,-113.433C834.27,-112.917 834.644,-112.24 835.487,-111.978C835.842,-111.868 836.246,-111.884 836.63,-111.736C837.331,-111.465 837.886,-110.59 838.985,-110.766C839.158,-110.385 839.235,-109.908 839.469,-109.589C840.627,-109.499 841.275,-108.901 841.963,-108.342C841.716,-107.231 841.642,-106.191 841.201,-105.225C840.796,-104.338 840.127,-103.566 839.816,-102.697C839.595,-102.08 839.734,-101.291 839.435,-100.688C839.318,-100.452 838.929,-100.311 838.812,-99.996C838.705,-99.711 838.749,-99.188 838.742,-98.853C838.558,-98.369 837.989,-98.207 837.599,-97.883C837.331,-97.66 837.047,-97.165 836.768,-96.914C836.298,-96.489 835.632,-96.232 835.418,-95.702C835.193,-95.146 835.482,-94.489 835.314,-93.762C835.792,-94.082 835.986,-95.168 836.526,-95.425C836.899,-94.659 836.292,-93.996 836.006,-93.451C835.365,-92.224 834.675,-91.229 833.998,-89.987C833.683,-89.409 833.303,-88.718 833.167,-88.083C833.114,-87.835 833.189,-87.534 833.132,-87.252C833.071,-86.95 832.615,-86.48 832.37,-86.144C831.805,-85.366 831.517,-84.632 830.985,-83.823C830.734,-83.441 830.401,-83.059 830.258,-82.715C830.125,-82.396 830.12,-81.863 829.946,-81.572C829.729,-81.209 829.245,-81.025 828.907,-80.672C828.657,-80.41 828.383,-79.999 828.111,-79.633C827.849,-79.281 827.533,-78.898 827.349,-78.559C827.133,-78.161 827.051,-77.686 826.829,-77.313C826.44,-76.656 825.647,-76.304 825.306,-75.685C825.15,-75.403 825.087,-75.003 824.925,-74.681C824.816,-74.463 824.589,-74.281 824.509,-74.092C824.43,-73.905 824.484,-73.676 824.371,-73.503C824.184,-73.218 823.591,-73.124 823.262,-72.88C822.999,-72.684 822.989,-72.513 822.778,-72.291C822.471,-72.32 822.564,-72.747 822.362,-72.88C821.386,-72.816 821.473,-74.006 821.115,-74.715C820.608,-75.72 819.623,-76.698 819.176,-77.728C818.83,-78.524 818.729,-79.391 818.379,-80.152C818.168,-80.613 817.756,-80.984 817.514,-81.434C817.05,-82.294 816.773,-83.266 816.336,-84.135C815.896,-85.009 815.323,-85.748 814.847,-86.524C814.515,-86.306 814.094,-86.086 813.981,-85.693C813.922,-85.486 814.026,-85.283 813.981,-85.035C813.95,-84.86 813.689,-84.613 813.531,-84.377C812.804,-83.287 812.464,-81.848 811.834,-80.672C811.585,-80.207 811.15,-79.832 810.968,-79.39C810.821,-79.03 810.899,-78.686 810.691,-78.386C810.678,-78.238 810.401,-78.353 810.276,-78.317C809.95,-78.089 809.773,-77.712 809.549,-77.382C809.123,-77.348 809.055,-77.673 808.752,-77.763C808.594,-77.239 808.715,-76.79 808.648,-76.343C808.575,-75.853 807.814,-75.093 807.54,-74.715C807.126,-74.145 806.786,-73.629 806.466,-73.088C805.562,-73.216 805.029,-72.194 804.388,-72.88C804.206,-73.076 804.183,-73.533 804.042,-73.884C803.813,-74.456 803.262,-74.965 803.003,-75.65C802.856,-76.041 802.779,-76.594 802.657,-77.07C802.533,-77.553 802.36,-78.054 802.311,-78.455C802.263,-78.848 802.33,-79.139 802.276,-79.46C802.194,-79.947 801.736,-80.507 801.687,-80.984C801.66,-81.25 801.841,-81.526 801.791,-81.884C801.72,-82.4 801.372,-83.231 801.168,-83.754C800.941,-84.337 800.675,-84.994 800.371,-85.416C800.023,-85.901 799.414,-86.197 799.125,-86.697C798.713,-87.409 798.688,-88.364 798.259,-89.122C797.89,-89.774 797.119,-90.354 796.839,-91.061C796.557,-91.772 796.377,-92.617 796.146,-93.416C795.919,-94.205 795.785,-95.06 795.488,-95.805C795.327,-96.212 795.006,-96.607 794.761,-97.018C794.046,-98.22 793.429,-99.542 792.857,-100.931C792.317,-102.239 791.734,-103.688 791.021,-104.913C790.777,-105.331 790.421,-105.772 790.328,-106.16C790.204,-106.679 790.35,-107.368 790.19,-107.649C790.051,-107.893 789.625,-107.903 789.359,-108.065C788.645,-108.5 788.4,-109.642 788.25,-110.662C789.072,-111.248 790.05,-111.647 791.125,-112.013C791.46,-112.127 791.874,-112.171 792.198,-112.324C792.782,-112.6 793.304,-113.524 793.895,-113.848C794.362,-114.104 795.03,-114.12 795.558,-114.368C796.111,-114.628 796.539,-115.201 797.116,-115.51C797.599,-115.77 798.347,-115.767 798.917,-115.961C799.493,-116.157 799.908,-116.603 800.371,-116.723C800.87,-116.851 801.529,-116.683 801.687,-116.411C801.959,-115.946 801.685,-115.198 801.86,-114.679C801.953,-114.406 802.206,-114.116 802.415,-113.848C803.031,-113.059 803.442,-112.208 804.042,-111.355C804.209,-110.761 804.052,-110.231 804.319,-109.692C804.539,-109.25 805.314,-109.114 805.497,-108.723C805.706,-108.273 805.521,-107.778 805.566,-107.269C805.593,-106.964 805.708,-106.654 805.912,-106.403C806.177,-106.077 806.781,-105.848 806.916,-105.537C807.06,-105.207 807.024,-104.774 807.09,-104.429C807.157,-104.078 807.2,-103.688 807.298,-103.355C807.479,-102.732 808.005,-102.29 807.99,-101.554Z" style="fill:white;fill-rule:nonzero;"/>
            <path d="M775.541,-97.225C775.475,-97.287 775.312,-97.251 775.195,-97.26C775.038,-97.368 775.101,-97.676 775.022,-97.883C774.943,-98.089 774.629,-98.256 774.571,-98.576C774.504,-98.951 774.678,-99.385 774.71,-99.857C774.744,-100.37 774.622,-100.836 774.675,-101.277C774.724,-101.682 774.968,-102.077 775.091,-102.454C775.285,-103.053 775.227,-103.518 775.818,-103.701C776.191,-103.817 776.5,-102.537 776.511,-102.212C776.53,-101.601 776.64,-100.436 776.441,-99.926C776.292,-99.544 775.636,-99.263 775.575,-98.818C775.536,-98.525 775.816,-98.255 775.818,-97.918C775.82,-97.622 775.689,-97.517 775.541,-97.225Z" style="fill:white;fill-rule:nonzero;"/>
        </g>
    </g>
</svg>
